<?xml version="1.0" encoding="UTF-8"?>
<svg width="212px" height="30px" viewBox="0 0 212 30" version="1.1" xmlns="http://www.w3.org/2000/svg" xmlns:xlink="http://www.w3.org/1999/xlink">
    <!-- Generator: Sketch 55.2 (78181) - https://sketchapp.com -->
    <title>Logo/Web30</title>
    <desc>Created with Sketch.</desc>
    <g id="Logo/Web30" stroke="none" stroke-width="1" fill="none" fill-rule="evenodd">
        <g id="Logo/Square" fill="#111111">
            <path d="M20.034965,9.96503497 L30,9.96503497 L30,20.034965 L20.034965,20.034965 L20.034965,30 L9.96503497,30 L9.96503497,20.034965 L0,20.034965 L0,9.96503497 L9.96503497,9.96503497 L9.96503497,0 L20.034965,0 L20.034965,9.96503497 Z" id="Combined-Shape"></path>
        </g>
        <path d="M42.15625,7.08984375 L48.5429688,7.08984375 C51.7421875,7.08984375 53.9570312,9.33984375 53.9570312,12.5625 C53.9570312,15.7265625 51.6953125,17.9648438 48.5195312,17.9648438 L44.265625,17.9648438 L44.265625,24 L42.15625,24 L42.15625,7.08984375 Z M44.265625,8.96484375 L44.265625,16.0898438 L47.9921875,16.0898438 C50.3945312,16.0898438 51.7890625,14.8007812 51.7890625,12.5625 C51.7890625,10.2421875 50.4414062,8.96484375 47.9921875,8.96484375 L44.265625,8.96484375 Z M69.5703125,7.08984375 L69.5703125,18.046875 C69.5703125,20.6015625 71.2460938,22.453125 74.1757812,22.453125 C77.1054688,22.453125 78.78125,20.6015625 78.78125,18.046875 L78.78125,7.08984375 L80.890625,7.08984375 L80.890625,18.1875 C80.890625,21.796875 78.3710938,24.3984375 74.1757812,24.3984375 C69.9804688,24.3984375 67.4609375,21.796875 67.4609375,18.1875 L67.4609375,7.08984375 L69.5703125,7.08984375 Z M97.3476562,24 L95.2617188,24 L95.2617188,7.08984375 L97.3125,7.08984375 L106.488281,20.25 L106.675781,20.25 L106.675781,7.08984375 L108.761719,7.08984375 L108.761719,24 L106.710938,24 L97.5351562,10.8867188 L97.3476562,10.8867188 L97.3476562,24 Z M125.183594,24 L123.074219,24 L123.074219,7.08984375 L125.183594,7.08984375 L125.183594,15.3046875 L125.371094,15.3046875 L132.777344,7.08984375 L135.425781,7.08984375 L128.664062,14.390625 L136.046875,24 L133.316406,24 L127.210938,15.8554688 L125.183594,18.09375 L125.183594,24 Z M155.386719,24 L153.277344,24 L153.277344,8.98828125 L147.828125,8.98828125 L147.828125,7.08984375 L160.835938,7.08984375 L160.835938,8.98828125 L155.386719,8.98828125 L155.386719,24 Z M184.359375,22.1015625 L184.359375,24 L174.09375,24 L174.09375,7.08984375 L176.203125,7.08984375 L176.203125,22.1015625 L184.359375,22.1015625 Z M199.832031,24 L197.722656,24 L197.722656,7.08984375 L199.832031,7.08984375 L199.832031,24 Z" id="PUNKTLI" fill="#333333" fill-rule="nonzero"></path>
    </g>
</svg>