<?xml version="1.0" encoding="UTF-8"?>
<svg width="24px" height="24px" viewBox="0 0 24 24" version="1.1" xmlns="http://www.w3.org/2000/svg" xmlns:xlink="http://www.w3.org/1999/xlink">
    <!-- Generator: Sketch 57.1 (83088) - https://sketch.com -->
    <title>sun</title>
    <desc>Created with Sketch.</desc>
    <defs>
        <path d="M12,20 C12.5128358,20 12.9355072,20.3860402 12.9932723,20.8833789 L13,21 L13,23 C13,23.5522847 12.5522847,24 12,24 C11.4871642,24 11.0644928,23.6139598 11.0067277,23.1166211 L11,23 L11,21 C11,20.4477153 11.4477153,20 12,20 Z M18.9728994,17.5697046 L19.0671068,17.6528932 L20.4871068,19.0728932 C20.8776311,19.4634175 20.8776311,20.0965825 20.4871068,20.4871068 C20.1266228,20.8475907 19.5593918,20.8753203 19.1671006,20.5702954 L19.0728932,20.4871068 L17.6528932,19.0671068 C17.2623689,18.6765825 17.2623689,18.0434175 17.6528932,17.6528932 C18.0133772,17.2924093 18.5806082,17.2646797 18.9728994,17.5697046 Z M6.34710678,17.6528932 C6.70759074,18.0133772 6.73532028,18.5806082 6.43029539,18.9728994 L6.34710678,19.0671068 L4.92710678,20.4871068 C4.53658249,20.8776311 3.90341751,20.8776311 3.51289322,20.4871068 C3.15240926,20.1266228 3.12467972,19.5593918 3.42970461,19.1671006 L3.51289322,19.0728932 L4.93289322,17.6528932 C5.32341751,17.2623689 5.95658249,17.2623689 6.34710678,17.6528932 Z M12,6 C15.3137085,6 18,8.6862915 18,12 C18,15.3137085 15.3137085,18 12,18 C8.6862915,18 6,15.3137085 6,12 C6,8.6862915 8.6862915,6 12,6 Z M12,8 C9.790861,8 8,9.790861 8,12 C8,14.209139 9.790861,16 12,16 C14.209139,16 16,14.209139 16,12 C16,9.790861 14.209139,8 12,8 Z M3,11 C3.55228475,11 4,11.4477153 4,12 C4,12.5128358 3.61395981,12.9355072 3.11662113,12.9932723 L3,13 L1,13 C0.44771525,13 0,12.5522847 0,12 C0,11.4871642 0.38604019,11.0644928 0.883378875,11.0067277 L1,11 L3,11 Z M23,11 C23.5522847,11 24,11.4477153 24,12 C24,12.5128358 23.6139598,12.9355072 23.1166211,12.9932723 L23,13 L21,13 C20.4477153,13 20,12.5522847 20,12 C20,11.4871642 20.3860402,11.0644928 20.8833789,11.0067277 L21,11 L23,11 Z M4.83289944,3.42970461 L4.92710678,3.51289322 L6.34710678,4.93289322 C6.73763107,5.32341751 6.73763107,5.95658249 6.34710678,6.34710678 C5.98662282,6.70759074 5.41939176,6.73532028 5.02710056,6.43029539 L4.93289322,6.34710678 L3.51289322,4.92710678 C3.12236893,4.53658249 3.12236893,3.90341751 3.51289322,3.51289322 C3.87337718,3.15240926 4.44060824,3.12467972 4.83289944,3.42970461 Z M19.0728932,3.51289322 C19.4634175,3.12236893 20.0965825,3.12236893 20.4871068,3.51289322 C20.8776311,3.90341751 20.8776311,4.53658249 20.4871068,4.92710678 L20.4871068,4.92710678 L19.0671068,6.34710678 C18.6765825,6.73763107 18.0434175,6.73763107 17.6528932,6.34710678 C17.2623689,5.95658249 17.2623689,5.32341751 17.6528932,4.93289322 L17.6528932,4.93289322 Z M12,0 C12.5128358,0 12.9355072,0.38604019 12.9932723,0.883378875 L13,1 L13,3 C13,3.55228475 12.5522847,4 12,4 C11.4871642,4 11.0644928,3.61395981 11.0067277,3.11662113 L11,3 L11,1 C11,0.44771525 11.4477153,0 12,0 Z" id="path-1"></path>
    </defs>
    <g id="sun" stroke="none" stroke-width="1" fill="none" fill-rule="evenodd">
        <mask id="mask-2" fill="white">
            <use xlink:href="#path-1"></use>
        </mask>
        <use id="Combined-Shape" fill="#F7D64E" xlink:href="#path-1"></use>
    </g>
</svg>